<mxfile host="app.diagrams.net" modified="2023-09-22T13:47:13.258Z" agent="Mozilla/5.0 (Windows NT 10.0; Win64; x64) AppleWebKit/537.36 (KHTML, like Gecko) Chrome/114.0.0.0 YaBrowser/23.7.5.734 Yowser/2.5 Safari/537.36" etag="bdqTtd_v1gLovqTb-YBQ" version="21.8.0" type="github">
  <diagram name="Page-1" id="_Yfvk3Ez9DMX68SssDiY">
    <mxGraphModel dx="1386" dy="767" grid="1" gridSize="10" guides="1" tooltips="1" connect="1" arrows="1" fold="1" page="1" pageScale="1" pageWidth="827" pageHeight="1169" math="0" shadow="0">
      <root>
        <mxCell id="0" />
        <mxCell id="1" parent="0" />
        <mxCell id="gKLcqPl8lPpqgGKzgX3a-5" value="" style="edgeStyle=orthogonalEdgeStyle;rounded=0;orthogonalLoop=1;jettySize=auto;html=1;" edge="1" parent="1" source="gKLcqPl8lPpqgGKzgX3a-1">
          <mxGeometry relative="1" as="geometry">
            <mxPoint x="414" y="160" as="targetPoint" />
          </mxGeometry>
        </mxCell>
        <mxCell id="gKLcqPl8lPpqgGKzgX3a-1" value="Start" style="ellipse;whiteSpace=wrap;html=1;fillColor=#A8FCFF;" vertex="1" parent="1">
          <mxGeometry x="359" y="30" width="110" height="50" as="geometry" />
        </mxCell>
        <mxCell id="gKLcqPl8lPpqgGKzgX3a-9" value="" style="edgeStyle=orthogonalEdgeStyle;rounded=0;orthogonalLoop=1;jettySize=auto;html=1;" edge="1" parent="1" source="gKLcqPl8lPpqgGKzgX3a-2" target="gKLcqPl8lPpqgGKzgX3a-8">
          <mxGeometry relative="1" as="geometry" />
        </mxCell>
        <mxCell id="gKLcqPl8lPpqgGKzgX3a-2" value="array1;&lt;br style=&quot;border-color: var(--border-color);&quot;&gt;arrayNew;&lt;br&gt;count = 0" style="rounded=0;whiteSpace=wrap;html=1;glass=0;shadow=0;fillColor=#FFF08F;" vertex="1" parent="1">
          <mxGeometry x="354" y="160" width="120" height="60" as="geometry" />
        </mxCell>
        <mxCell id="gKLcqPl8lPpqgGKzgX3a-11" value="" style="edgeStyle=orthogonalEdgeStyle;rounded=0;orthogonalLoop=1;jettySize=auto;html=1;" edge="1" parent="1" source="gKLcqPl8lPpqgGKzgX3a-8" target="gKLcqPl8lPpqgGKzgX3a-10">
          <mxGeometry relative="1" as="geometry" />
        </mxCell>
        <mxCell id="gKLcqPl8lPpqgGKzgX3a-19" value="" style="edgeStyle=orthogonalEdgeStyle;rounded=0;orthogonalLoop=1;jettySize=auto;html=1;" edge="1" parent="1" source="gKLcqPl8lPpqgGKzgX3a-8" target="gKLcqPl8lPpqgGKzgX3a-18">
          <mxGeometry relative="1" as="geometry" />
        </mxCell>
        <mxCell id="gKLcqPl8lPpqgGKzgX3a-8" value="i = 0; i &amp;lt; array1.Length; i=i+1" style="shape=hexagon;perimeter=hexagonPerimeter2;whiteSpace=wrap;html=1;fixedSize=1;fillColor=#6a00ff;fontColor=#ffffff;strokeColor=#3700CC;" vertex="1" parent="1">
          <mxGeometry x="314" y="300" width="200" height="80" as="geometry" />
        </mxCell>
        <mxCell id="gKLcqPl8lPpqgGKzgX3a-13" value="" style="edgeStyle=orthogonalEdgeStyle;rounded=0;orthogonalLoop=1;jettySize=auto;html=1;" edge="1" parent="1" source="gKLcqPl8lPpqgGKzgX3a-10" target="gKLcqPl8lPpqgGKzgX3a-12">
          <mxGeometry relative="1" as="geometry" />
        </mxCell>
        <mxCell id="gKLcqPl8lPpqgGKzgX3a-17" value="Yes" style="edgeLabel;html=1;align=center;verticalAlign=middle;resizable=0;points=[];" vertex="1" connectable="0" parent="gKLcqPl8lPpqgGKzgX3a-13">
          <mxGeometry x="-0.1692" y="-3" relative="1" as="geometry">
            <mxPoint as="offset" />
          </mxGeometry>
        </mxCell>
        <mxCell id="gKLcqPl8lPpqgGKzgX3a-14" style="edgeStyle=orthogonalEdgeStyle;rounded=0;orthogonalLoop=1;jettySize=auto;html=1;exitX=0;exitY=0.5;exitDx=0;exitDy=0;entryX=0;entryY=0.5;entryDx=0;entryDy=0;" edge="1" parent="1" source="gKLcqPl8lPpqgGKzgX3a-10" target="gKLcqPl8lPpqgGKzgX3a-8">
          <mxGeometry relative="1" as="geometry">
            <Array as="points">
              <mxPoint x="260" y="480" />
              <mxPoint x="260" y="340" />
            </Array>
          </mxGeometry>
        </mxCell>
        <mxCell id="gKLcqPl8lPpqgGKzgX3a-16" value="No" style="edgeLabel;html=1;align=center;verticalAlign=middle;resizable=0;points=[];" vertex="1" connectable="0" parent="gKLcqPl8lPpqgGKzgX3a-14">
          <mxGeometry x="-0.749" y="-1" relative="1" as="geometry">
            <mxPoint as="offset" />
          </mxGeometry>
        </mxCell>
        <mxCell id="gKLcqPl8lPpqgGKzgX3a-10" value="array[i].Length &amp;lt;= 3" style="rhombus;whiteSpace=wrap;html=1;fillColor=#85D845;fontColor=#ffffff;strokeColor=#A50040;" vertex="1" parent="1">
          <mxGeometry x="329" y="440" width="170" height="80" as="geometry" />
        </mxCell>
        <mxCell id="gKLcqPl8lPpqgGKzgX3a-15" style="edgeStyle=orthogonalEdgeStyle;rounded=0;orthogonalLoop=1;jettySize=auto;html=1;exitX=0.5;exitY=1;exitDx=0;exitDy=0;" edge="1" parent="1" source="gKLcqPl8lPpqgGKzgX3a-12">
          <mxGeometry relative="1" as="geometry">
            <mxPoint x="260" y="480" as="targetPoint" />
            <Array as="points">
              <mxPoint x="414" y="700" />
              <mxPoint x="261" y="700" />
            </Array>
          </mxGeometry>
        </mxCell>
        <mxCell id="gKLcqPl8lPpqgGKzgX3a-12" value="arrayNew[count] = array1[i];&lt;br&gt;count = count +1" style="shape=parallelogram;perimeter=parallelogramPerimeter;whiteSpace=wrap;html=1;fixedSize=1;fillColor=#FF8640;" vertex="1" parent="1">
          <mxGeometry x="314" y="585" width="200" height="60" as="geometry" />
        </mxCell>
        <mxCell id="gKLcqPl8lPpqgGKzgX3a-21" value="" style="edgeStyle=orthogonalEdgeStyle;rounded=0;orthogonalLoop=1;jettySize=auto;html=1;" edge="1" parent="1" source="gKLcqPl8lPpqgGKzgX3a-18" target="gKLcqPl8lPpqgGKzgX3a-20">
          <mxGeometry relative="1" as="geometry" />
        </mxCell>
        <mxCell id="gKLcqPl8lPpqgGKzgX3a-18" value="Print (arrayNew)" style="shape=document;whiteSpace=wrap;html=1;boundedLbl=1;fillColor=#BDFFCE;" vertex="1" parent="1">
          <mxGeometry x="570" y="300" width="120" height="80" as="geometry" />
        </mxCell>
        <mxCell id="gKLcqPl8lPpqgGKzgX3a-20" value="Finish" style="ellipse;whiteSpace=wrap;html=1;fillColor=#A8FCFF;" vertex="1" parent="1">
          <mxGeometry x="730" y="310" width="120" height="60" as="geometry" />
        </mxCell>
      </root>
    </mxGraphModel>
  </diagram>
</mxfile>
